# xmcd
#
# Track frame offsets: 
#        150
#        2932
#        23372
#        38848
#        53751
#        66447
#        87480
#        110721
#        122441
#        143963
#        160801
#        189858
#        224649
#        247157
#        271635
#        297692
#
# Disc length: 4308 seconds
#
# Revision: 5
# Processed by: cddbd v1.5.2PL0 Copyright (c) Steve Scherf et al.
# Submitted via: ExactAudioCopyFreeDBPlugin 1.0
#
DISCID=ec10d210
DTITLE=Various Artist - NieR Automata Original Soundtrack
DYEAR=2017
DGENRE=Game
TTITLE0=帆足圭吾  - 再生ト希望
TTITLE1=帆足圭吾・岡部啓一  - 戦争ト戦争
TTITLE2=帆足圭吾 - 崩壊ノ虚妄
TTITLE3=帆足圭吾 - 茫洋タル病
TTITLE4=岡部啓一 - 偽リノ城塞
TTITLE5=帆足圭吾 - 曖昧ナ希望／翠雨
TTITLE6=岡部啓一 - イニシエノウタ／贖罪
TTITLE7=岡部啓一 - 幸セナ死
TTITLE8=帆足圭吾・石濱 翔 - エミール／絶望
TTITLE9=帆足圭吾・岡部啓一 - 澱ンダ祈リ／星空
TTITLE10=岡部啓一・帆足圭吾 - 顕現シタ異物
TTITLE11=岡部啓一 - 「塔」
TTITLE12=帆足圭吾 - 双極ノ悪夢
TTITLE13=帆足圭吾 - 終ワリノ音
TTITLE14=岡部啓一 and Emi Evans - Weight of the World／Nouveau-FR Version
TTITLE15=岡部啓一 and YoRHa - Weight of the World／the End of YoRHa
EXTD=YEAR: 2017
EXTT0=
EXTT1=
EXTT2=
EXTT3=
EXTT4=
EXTT5=
EXTT6=
EXTT7=
EXTT8=
EXTT9=
EXTT10=
EXTT11=
EXTT12=
EXTT13=
EXTT14=
EXTT15=
PLAYORDER=
